<svg width="88" height="88" viewBox="0 0 88 88" fill="none" xmlns="http://www.w3.org/2000/svg">
<path d="M77.6865 15.5281C79.2393 15.5281 80.4972 16.786 80.4972 18.3388C80.4972 19.8916 79.2393 21.1495 77.6865 21.1495C76.1336 21.1495 74.8757 19.8916 74.8757 18.3388C74.8757 16.786 76.1336 15.5281 77.6865 15.5281ZM77.6865 14.6172C75.6391 14.6172 73.9648 16.2828 73.9648 18.3388C73.9648 20.3948 75.6305 22.0604 77.6865 22.0604C79.7424 22.0604 81.4081 20.3948 81.4081 18.3388C81.4081 16.2828 79.7424 14.6172 77.6865 14.6172Z" fill="#E2001A"/>
<path d="M83.8437 13.6897C84.6765 13.6897 85.3532 14.3664 85.3532 15.1992C85.3532 16.032 84.6765 16.7086 83.8437 16.7086C83.0109 16.7086 82.3342 16.032 82.3342 15.1992C82.3342 14.3664 83.0109 13.6897 83.8437 13.6897ZM83.8437 13.0391C82.6465 13.0391 81.6836 14.0107 81.6836 15.1992C81.6836 16.3876 82.6552 17.3593 83.8437 17.3593C85.0322 17.3593 86.0038 16.3876 86.0038 15.1992C86.0038 14.0107 85.0322 13.0391 83.8437 13.0391Z" fill="#E2001A"/>
<path d="M61.1944 33.7285H60.4397C55.1218 33.7285 50.793 38.0574 50.793 43.3752V44.555C50.793 49.8728 55.1218 54.2017 60.4397 54.2017H61.1944C66.5382 54.2017 70.8845 49.8728 70.8845 44.555V43.3752C70.8845 38.0574 66.5382 33.7285 61.1944 33.7285Z" fill="#E2001A"/>
<path d="M61.1946 56.6222H60.4398C57.1954 56.6222 54.2285 55.4077 51.8862 53.1088C49.622 50.836 48.3641 47.7997 48.3641 44.5552V43.3754C48.3641 40.1222 49.6133 37.086 51.8775 34.8218C54.2285 32.5229 57.1867 31.3084 60.4312 31.3084H61.1859C64.4304 31.3084 67.4753 32.5576 69.7395 34.8218C70.581 35.6632 71.2837 36.6088 71.8389 37.6151V2.75H0.191406V74.5103H71.8562V50.3068C71.301 51.3218 70.5984 52.2587 69.7569 53.1002C67.484 55.3644 64.4477 56.6136 61.2032 56.6136M39.4028 19.9006H41.7624L36.8176 27.2484H34.6054L39.4028 19.9006ZM8.27658 24.5158C9.07469 24.5158 9.69062 25.1751 9.69062 25.9298C9.69062 26.6845 9.07469 27.3438 8.27658 27.3438C7.52185 27.3438 6.91459 26.6845 6.91459 25.9298C6.91459 25.1751 7.52185 24.5158 8.27658 24.5158ZM13.3255 56.7524H11.9114C9.19614 56.7524 6.98399 54.5402 6.98399 51.8249V31.3517H9.36096V51.8249C9.36096 53.2303 10.5061 54.3754 11.9114 54.3754H13.3255V56.7524ZM24.9241 56.7524H20.9335C18.2182 56.7524 16.0061 54.5402 16.0061 51.8249V20.3431H18.383V51.8423C18.383 53.2476 19.5282 54.3927 20.9335 54.3927H24.9241V56.7697V56.7524ZM45.6662 49.3005C45.484 52.0938 43.7924 53.8462 42.3957 54.8178C40.652 56.0497 38.3878 56.7524 36.193 56.7524C33.8334 56.7524 31.1354 56.5962 28.9493 55.4338C26.2774 54.011 24.9154 51.3218 24.9154 47.4614V41.623C24.9154 34.9866 28.8105 31.4819 36.193 31.4819C39.3767 31.4819 45.3972 33.0087 45.3972 38.795C45.3972 42.9677 42.439 45.3533 37.2774 45.3533C36.6181 45.3533 35.9241 45.3273 35.1954 45.2926C34.458 45.2666 33.6946 45.2319 32.9572 45.2319C30.0424 45.2319 27.3531 45.6656 27.3531 48.8233C27.3531 49.795 27.7695 54.653 35.9154 54.653C40.3136 54.653 43.428 51.877 43.5755 49.2918V49.1877H45.6748V49.3005H45.6662Z" fill="#E2001A"/>
<path d="M32.4983 43.1933C33.0014 43.1933 33.5219 43.1933 34.0511 43.2106C34.589 43.2193 35.1268 43.228 35.6647 43.228C39.2648 43.228 43.1079 42.8983 43.1079 38.9945C43.1079 35.8455 40.436 33.9717 35.9596 33.9717C33.0708 33.9717 30.8934 34.7177 29.4707 36.2012C27.4147 38.3352 27.2065 41.6751 27.2932 44.4251C28.152 43.4188 29.9998 43.202 32.4983 43.202" fill="#E2001A"/>
<path d="M81.1393 24.3425C84.0975 24.3425 86.4919 26.7368 86.4919 29.695C86.4919 32.6532 84.0975 35.0475 81.1393 35.0475C78.1811 35.0475 75.7868 32.6532 75.7868 29.695C75.7868 26.7368 78.1811 24.3425 81.1393 24.3425ZM81.1393 22.833C77.357 22.833 74.2773 25.9127 74.2773 29.695C74.2773 33.4773 77.357 36.557 81.1393 36.557C84.9217 36.557 88.0013 33.4773 88.0013 29.695C88.0013 25.9127 84.9217 22.833 81.1393 22.833Z" fill="#E2001A"/>
<path d="M0 78.9434H1.03233V83.8621H4.10331V84.799H0V78.9434Z" fill="#616060"/>
<path d="M4.51172 80.8691C5.02355 80.7737 5.26645 80.5221 5.23175 80.0797H4.798V78.9346H5.90841V79.9149C5.90841 80.8431 5.46598 81.2335 4.62449 81.3029L4.52039 80.8691H4.51172Z" fill="#616060"/>
<path d="M6.94141 78.9434H11.2876V79.8629H7.97374V81.3811H10.9146V82.3006H7.97374V83.8795H11.331V84.799H6.94141V78.9434Z" fill="#616060"/>
<path d="M14.3842 78.8994H15.3385L17.915 84.7985H16.8306L16.2407 83.3844H13.4733L12.8748 84.7985H11.8164L14.3929 78.8994H14.3842ZM15.859 82.4735L14.844 80.1313L13.8377 82.4735H15.8503H15.859Z" fill="#616060"/>
<path d="M18.1484 82.3092V78.9346H19.1808V82.2658C19.1808 83.3502 19.7447 83.9314 20.6642 83.9314C21.5838 83.9314 22.139 83.3849 22.139 82.3092V78.9346H23.1713V82.2571C23.1713 84.0095 22.1823 84.8857 20.6555 84.8857C19.1287 84.8857 18.1658 84.0095 18.1658 82.3092" fill="#616060"/>
<path d="M26.8164 78.9434H29.0025C30.8416 78.9434 32.1169 80.2099 32.1169 81.8582V81.8755C32.1169 83.5238 30.8416 84.8077 29.0025 84.8077H26.8164V78.952V78.9434ZM27.8487 79.8803V83.8621H29.0025C30.2344 83.8621 31.0325 83.038 31.0325 81.8842V81.8669C31.0325 80.7217 30.2257 79.8716 29.0025 79.8716H27.8487V79.8803Z" fill="#616060"/>
<path d="M32.8945 78.9434H37.2407V79.8629H33.9269V81.3811H36.859V82.3006H33.9269V83.8795H37.2754V84.799H32.8945V78.9434Z" fill="#616060"/>
<path d="M40.7383 78.9434H41.7619V83.8621H44.8416V84.799H40.7383V78.9434Z" fill="#616060"/>
<path d="M47.7475 78.8994H48.7018L51.2783 84.7985H50.1939L49.604 83.3844H46.8366L46.238 84.7985H45.1797L47.7562 78.8994H47.7475ZM49.2223 82.4735L48.2073 80.1313L47.201 82.4735H49.2136H49.2223Z" fill="#616060"/>
<path d="M54.375 78.9434H56.4136L57.6715 80.9993L58.9207 78.9434H60.9594V84.799H59.0162V81.8929L57.6715 83.9749H57.6368L56.2835 81.8929V84.799H54.375V78.9434Z" fill="#E2001A"/>
<path d="M61.6367 78.9434H66.6249V80.5482H63.5539V81.1382H66.4167V82.5522H63.5539V83.1941H66.6683V84.799H61.6367V78.9434Z" fill="#E2001A"/>
<path d="M67.1953 78.9434H69.1559V83.1247H71.9059V84.799H67.1953V78.9434Z" fill="#E2001A"/>
</svg>
